<svg width="160" height="153" viewBox="0 0 160 153" fill="none" xmlns="http://www.w3.org/2000/svg">
<path id="Vector" d="M160 47.9572L137.641 71.844L101.485 40.1951L68.6302 77.8601L79.9049 87.9563L85.5423 81.7442L98.1789 92.8084L68.8203 124.457L73.2922 128.727L66.6856 139.216L59.8765 137.078L57.7418 143.682L42.7681 138.824L47.0498 134.168L40.4371 128.727L20.4149 153L8.55731 132.422L16.9183 110.477L2.74814 96.1718L0 93.3904L26.635 64.0757L23.5249 61.3556L42.1915 41.935L37.1307 37.6649L40.4371 34.1729L49.1846 42.1311L72.1267 18.2505L65.6551 7.6886L81.6839 2.35253L83.2052 6.21214L95.0688 3.10607L95.4553 0L112.76 9.7103L160 47.9572Z" fill="black"/>
</svg>
