<svg width="131" height="127" viewBox="0 0 131 127" fill="none" xmlns="http://www.w3.org/2000/svg">
<path id="Vector" d="M116.279 21.6449L131 38.6219L98.4186 64.641L120.675 85.6924L122.999 101.011L130.129 116.331L102.373 127L99.2647 121.402L91.895 121.898L91.0305 114.153L101.282 105.838L97.1127 101.684L90.3867 104.242L86.2175 108.078L32.1154 91.1801L15.4201 96.5699L8.36915 103.526L0 81.4283L26.4992 79.8499L24.4023 59.9792L5.79403 61.6799L4.09566 44.55L12.3483 15.264L48.1179 2.58172L64.7581 1.14404L82.7349 0L86.5056 3.10786L90.8282 3.38316L101.766 10.4309L109.584 18.0354L116.279 21.6449Z" fill="black"/>
</svg>
