<svg width="166" height="172" viewBox="0 0 166 172" fill="none" xmlns="http://www.w3.org/2000/svg">
<path id="Vector" d="M166 24.5775L130.219 44.6564V59.112L141.095 61.6181L139.698 88.3104L142.211 96.9288L126.313 101.654L98.1408 126.121L102.886 129.458L97.8649 138.633L93.9655 137.521L86.1545 172L67.3871 163.443L30.8211 135.583L0 131.488L1.23236 99.1292L12.3236 100.358L14.7883 88.066L11.5081 85.1993L13.562 47.1075L35.3398 45.8789L54.2359 48.7456V44.2408L98.2021 37.2728L114.64 26.2156L118.748 9.00952L132.714 0L141.347 0.409524L145.044 10.2381L166 24.5775Z" fill="black"/>
</svg>
